<svg xmlns="http://www.w3.org/2000/svg" viewBox="0 0 128 128">
  <defs>
    <linearGradient id="bg" x1="0" y1="0" x2="1" y2="1">
      <stop offset="0%" stop-color="#0a0e1a"/>
      <stop offset="65%" stop-color="#111827"/>
      <stop offset="100%" stop-color="#0c4a6e"/>
    </linearGradient>
    <linearGradient id="accent" x1="0" y1="0" x2="1" y2="1">
      <stop offset="0%" stop-color="#00e5ff"/>
      <stop offset="100%" stop-color="#3d8bfd"/>
    </linearGradient>
  </defs>
  <rect width="128" height="128" rx="28" fill="#0a0e1a"/>
  <rect x="10" y="10" width="108" height="108" rx="24" fill="url(#bg)"/>
  <rect x="10" y="10" width="108" height="108" rx="24" fill="none" stroke="#00e5ff" stroke-opacity="0.14" stroke-width="2"/>
  <rect x="28" y="68" width="10" height="24" rx="5" fill="#00e5ff" opacity="0.24"/>
  <rect x="46" y="56" width="10" height="36" rx="5" fill="#00e5ff" opacity="0.18"/>
  <rect x="64" y="38" width="10" height="54" rx="5" fill="#00e5ff" opacity="0.14"/>
  <path d="M24 82 L44 66 L60 72 L82 48 L104 58" fill="none" stroke="url(#accent)" stroke-width="10" stroke-linecap="round" stroke-linejoin="round"/>
  <circle cx="44" cy="66" r="7" fill="#0a0e1a" stroke="#00e5ff" stroke-width="4"/>
  <circle cx="82" cy="48" r="7" fill="#0a0e1a" stroke="#3d8bfd" stroke-width="4"/>
  <circle cx="104" cy="58" r="7" fill="#0a0e1a" stroke="#d500f9" stroke-width="4"/>
  <circle cx="96" cy="28" r="10" fill="none" stroke="#00e5ff" stroke-opacity="0.45" stroke-width="4"/>
  <circle cx="96" cy="28" r="4" fill="#00e5ff"/>
</svg>
